<?xml version="1.0" standalone="no"?>
<!DOCTYPE svg PUBLIC "-//W3C//DTD SVG 20010904//EN"
 "http://www.w3.org/TR/2001/REC-SVG-20010904/DTD/svg10.dtd">
<svg version="1.0" xmlns="http://www.w3.org/2000/svg"
 width="400.000000pt" height="400.000000pt" viewBox="0 0 400.000000 400.000000"
 preserveAspectRatio="xMidYMid meet">
<metadata>
Created by potrace 1.11, written by Peter Selinger 2001-2013
</metadata>
<g transform="translate(0.000000,400.000000) scale(0.100000,-0.100000)"
fill="#000000" stroke="none">
<path d="M1877 3639 c-9 -5 -22 -7 -29 -3 -7 4 -8 3 -4 -5 8 -12 -48 -74 -58
-64 -3 4 -6 1 -6 -5 0 -19 -47 -82 -55 -74 -5 4 -5 2 -2 -5 10 -16 -3 -44 -16
-36 -6 3 -7 1 -3 -6 4 -6 2 -19 -5 -27 -10 -13 -10 -17 2 -25 11 -7 11 -9 -3
-9 -12 0 -15 -5 -11 -16 3 -9 0 -20 -8 -25 -12 -7 -12 -9 0 -9 10 0 11 -3 2
-13 -6 -8 -7 -17 -3 -21 10 -11 9 -30 -3 -38 -7 -5 -7 -8 0 -8 6 0 12 -17 13
-37 2 -21 7 -40 12 -41 6 -2 8 -8 4 -13 -3 -5 1 -9 8 -9 9 0 9 -3 -2 -10 -12
-7 -12 -10 -1 -10 7 0 11 -6 8 -14 -3 -8 1 -17 9 -20 10 -4 13 -13 9 -26 -4
-14 -2 -20 7 -18 7 2 12 -5 12 -14 -1 -10 2 -18 7 -18 5 0 9 -7 9 -16 0 -9 5
-12 13 -8 9 5 9 4 0 -6 -9 -9 -9 -19 -2 -32 6 -11 11 -32 11 -48 1 -19 5 -27
12 -23 6 4 5 -1 -3 -10 -7 -9 -9 -17 -4 -17 5 0 10 -7 10 -15 0 -8 -5 -15 -11
-15 -7 0 -7 -3 -1 -8 12 -8 15 -52 4 -52 -9 0 -6 -20 5 -39 7 -10 6 -12 -4 -6
-10 6 -12 3 -8 -13 4 -12 1 -22 -4 -22 -6 0 -5 -7 2 -16 8 -8 9 -14 3 -12 -6
2 -12 -1 -13 -7 -1 -5 -6 -15 -11 -22 -7 -7 -6 -14 1 -18 6 -3 8 -11 5 -16 -6
-9 21 -56 30 -51 14 6 25 0 25 -14 0 -10 6 -14 15 -10 8 3 15 0 15 -6 0 -6 3
-8 7 -5 3 4 12 -1 20 -11 8 -9 12 -11 8 -4 -3 6 -1 12 4 12 6 0 11 -5 11 -11
0 -5 4 -8 9 -5 5 3 12 -1 15 -10 4 -9 9 -14 13 -11 3 4 12 -1 20 -11 8 -9 12
-11 8 -4 -3 6 -1 12 4 12 6 0 11 -4 11 -10 0 -5 7 -10 15 -10 8 0 15 -6 15
-12 0 -9 4 -8 10 2 6 10 10 11 10 3 0 -7 5 -13 11 -13 6 0 18 -8 27 -17 16
-16 16 -16 0 -11 -9 4 -19 4 -21 0 -2 -4 -2 -1 0 7 3 11 1 12 -12 1 -8 -7 -15
-9 -15 -4 0 5 -5 2 -10 -6 -5 -8 -10 -10 -10 -4 0 6 -7 11 -15 11 -8 0 -15 -5
-15 -11 0 -6 -4 -5 -9 2 -4 8 -12 14 -16 14 -4 0 -12 -6 -16 -14 -7 -11 -9
-11 -9 1 0 11 -3 11 -15 1 -9 -7 -15 -8 -15 -2 0 11 -25 10 -36 -1 -4 -3 -14
-3 -23 1 -20 9 -42 9 -58 -1 -8 -5 -13 -3 -13 4 0 8 -4 8 -15 -1 -12 -10 -15
-10 -15 1 0 9 -3 10 -8 4 -11 -16 -46 -19 -36 -3 6 10 4 10 -9 -1 -14 -11 -20
-11 -34 0 -11 10 -14 10 -9 2 4 -7 3 -13 -1 -13 -5 0 -15 6 -22 13 -11 10 -13
10 -7 0 4 -7 2 -13 -3 -13 -14 0 -14 17 -1 25 6 4 8 10 5 15 -3 4 3 11 12 14
12 5 14 9 5 18 -14 14 -16 32 -3 24 5 -3 11 3 14 14 3 10 0 21 -7 24 -6 2 -3
5 6 5 11 1 15 6 12 16 -4 8 -3 23 1 33 5 9 7 25 6 36 -2 10 2 15 7 12 6 -4 8
3 4 16 -4 16 -2 19 9 13 11 -7 12 -6 2 6 -12 15 -12 43 0 55 4 4 2 13 -4 21
-9 10 -8 13 1 13 10 0 10 3 0 15 -10 12 -10 15 1 15 12 0 12 2 0 9 -9 6 -10
10 -2 16 9 5 9 10 0 21 -6 7 -9 21 -5 29 3 8 1 15 -4 15 -5 0 -7 7 -3 16 3 9
1 19 -5 23 -6 4 -13 22 -14 40 -1 18 -8 36 -15 38 -7 3 -10 9 -7 14 3 5 1 9
-4 9 -5 0 -14 12 -20 26 -7 14 -17 22 -22 19 -6 -3 -10 4 -10 17 0 18 -2 20
-10 8 -9 -13 -10 -13 -11 0 -1 8 -1 17 -1 20 0 3 -9 7 -20 7 -12 1 -26 7 -32
14 -8 9 -7 10 3 4 9 -5 12 -4 7 3 -4 6 -13 9 -21 5 -8 -3 -15 0 -15 6 0 6 -5
11 -11 11 -14 0 -69 56 -69 70 0 5 -7 10 -16 10 -8 0 -12 5 -9 10 3 6 1 10 -4
10 -6 0 -11 7 -11 15 0 9 -7 18 -16 22 -13 5 -13 7 -2 14 8 6 9 9 1 9 -12 0
-12 17 0 36 4 7 0 17 -8 24 -11 9 -12 17 -4 32 9 16 8 19 -3 12 -10 -6 -11 -5
-1 7 18 22 18 23 -2 47 -20 23 -78 31 -90 12 -4 -6 -11 -7 -17 -4 -7 4 -8 2
-4 -4 4 -7 2 -12 -4 -12 -6 0 -8 -4 -5 -10 3 -5 -2 -10 -12 -10 -15 0 -16 -2
-3 -10 13 -8 12 -10 -3 -10 -10 0 -15 -5 -12 -10 4 -6 1 -17 -5 -25 -10 -11
-10 -15 -1 -15 7 0 9 -5 4 -12 -11 -19 -12 -37 -2 -44 5 -3 5 -13 -1 -25 -8
-13 -7 -19 0 -19 6 0 8 -4 5 -10 -3 -5 -2 -10 3 -10 5 0 8 -10 7 -22 -1 -12 4
-33 11 -47 7 -13 11 -28 8 -33 -3 -4 1 -11 10 -14 9 -3 12 -12 9 -21 -5 -12
-3 -14 6 -8 10 5 11 2 6 -14 -4 -14 -2 -21 7 -21 8 0 14 -10 15 -22 1 -11 8
-25 15 -29 7 -5 9 -9 4 -9 -5 0 -1 -10 10 -22 10 -12 14 -18 7 -15 -8 5 -8 1
0 -17 7 -13 15 -22 18 -20 9 5 6 -17 -4 -33 -4 -6 -2 -15 4 -18 5 -4 8 -14 5
-22 -3 -8 -1 -11 4 -8 6 3 10 -1 10 -10 0 -9 -4 -14 -9 -11 -5 4 -6 -9 -1 -29
5 -24 4 -35 -4 -35 -7 0 -6 -4 3 -9 8 -5 9 -10 2 -12 -6 -2 3 -12 20 -21 17
-10 27 -12 23 -5 -6 9 -4 9 7 1 11 -8 20 -4 39 14 14 14 19 22 13 18 -7 -4
-13 -3 -13 2 0 6 7 13 16 16 8 3 13 10 9 15 -3 5 -1 13 5 16 8 5 8 11 1 19 -6
7 -8 16 -4 19 3 4 0 7 -7 7 -9 0 -7 5 6 15 10 8 15 15 9 14 -21 -3 -23 2 -15
31 5 19 5 28 -1 25 -5 -4 -9 6 -9 20 0 14 -4 24 -9 21 -5 -4 -8 2 -6 11 1 10
-1 23 -6 29 -5 7 -3 11 6 11 8 0 12 -4 9 -9 -3 -4 2 -8 10 -8 9 0 16 -4 16
-10 0 -5 9 -10 21 -10 11 0 18 -4 14 -9 -3 -5 3 -16 13 -23 21 -15 42 -45 24
-34 -17 10 -15 -3 4 -21 11 -12 12 -18 4 -23 -8 -5 -6 -9 5 -14 13 -5 15 -9 6
-20 -6 -7 -8 -16 -4 -20 11 -11 11 -46 0 -46 -6 0 -7 -3 -4 -7 4 -3 1 -13 -6
-21 -8 -10 -8 -13 -1 -9 7 4 14 0 18 -8 3 -8 0 -17 -6 -21 -7 -5 -8 -2 -3 6 5
8 4 11 -3 7 -5 -4 -8 -16 -5 -27 3 -12 -2 -29 -13 -41 -17 -19 -17 -20 2 -14
16 6 15 3 -5 -14 -13 -12 -19 -21 -15 -21 5 0 2 -4 -6 -10 -9 -6 -17 -5 -22 3
-5 9 -8 9 -8 1 0 -7 -7 -15 -16 -18 -10 -4 -13 -2 -8 7 4 6 -1 5 -12 -4 -10
-8 -29 -14 -41 -13 -13 0 -23 -4 -23 -10 0 -6 -5 -4 -10 4 -7 11 -10 11 -10 2
0 -7 -4 -10 -10 -7 -5 3 -10 2 -10 -3 0 -8 -14 -12 -52 -13 -10 0 -21 -5 -24
-11 -4 -6 -10 -5 -15 3 -6 10 -9 11 -9 2 0 -7 -5 -13 -11 -13 -12 0 -44 -30
-32 -30 4 0 2 -4 -6 -9 -12 -7 -12 -13 -3 -24 7 -7 8 -18 4 -22 -4 -5 -1 -5 6
-1 6 4 12 2 12 -4 0 -6 5 -8 10 -5 6 3 10 1 10 -5 0 -6 4 -9 9 -6 5 4 12 0 14
-6 4 -10 6 -10 6 0 1 6 8 12 17 12 8 0 13 -4 10 -8 -6 -10 25 -9 42 2 7 4 12
2 12 -4 0 -7 6 -10 14 -7 7 3 19 0 25 -6 8 -8 11 -8 11 1 0 8 7 9 23 3 12 -4
28 -6 35 -4 6 3 12 -1 12 -9 0 -10 3 -9 10 2 9 13 10 13 10 0 0 -12 2 -12 9
-2 7 11 9 11 14 -2 7 -18 -8 -31 -18 -16 -5 8 -11 7 -21 -1 -11 -9 -14 -8 -14
2 0 9 -3 10 -8 4 -10 -14 -52 -15 -52 -1 0 6 -4 5 -9 -3 -8 -12 -14 -13 -37
-2 -25 11 -26 11 -14 -4 11 -14 11 -16 -1 -13 -8 2 -17 8 -21 13 -5 6 -8 5 -8
-3 0 -7 -4 -11 -9 -7 -5 3 -13 1 -16 -5 -5 -8 -12 -7 -23 2 -12 11 -16 11 -20
0 -3 -10 -7 -10 -20 0 -12 10 -14 10 -8 1 5 -9 -1 -12 -23 -9 -18 2 -31 -1
-31 -8 0 -6 -4 -6 -9 2 -6 11 -10 10 -15 -4 -5 -13 -10 -14 -18 -6 -7 7 -19 7
-34 2 -17 -7 -24 -6 -24 3 0 8 -3 8 -9 -2 -7 -11 -9 -11 -14 0 -4 10 -6 9 -6
-3 -1 -11 -6 -15 -16 -12 -8 4 -23 0 -32 -7 -14 -12 -16 -12 -8 1 8 13 6 13
-8 2 -9 -8 -21 -11 -27 -7 -5 3 -10 2 -10 -4 0 -5 -9 -8 -20 -6 -11 2 -18 0
-16 -4 3 -4 -6 -13 -21 -20 -22 -10 -25 -10 -17 1 5 8 1 6 -8 -5 -9 -10 -26
-19 -37 -20 -11 0 -19 -4 -18 -7 1 -3 -2 -6 -6 -7 -5 -1 -15 -10 -24 -20 -9
-11 -12 -12 -8 -3 4 8 -1 6 -10 -5 -9 -11 -21 -19 -26 -17 -6 1 -7 -2 -4 -8 4
-7 -2 -14 -13 -17 -13 -3 -18 -11 -15 -19 4 -10 0 -12 -13 -8 -11 4 -16 4 -12
-1 4 -4 -2 -16 -14 -26 -11 -11 -17 -19 -13 -19 4 0 -2 -9 -15 -20 -13 -11
-20 -20 -16 -20 4 0 1 -6 -6 -14 -7 -8 -17 -11 -23 -8 -5 3 -3 -3 5 -13 9 -11
10 -16 3 -11 -8 4 -13 1 -13 -8 0 -9 -5 -16 -11 -16 -5 0 -7 -4 -4 -10 3 -5 1
-10 -4 -10 -6 0 -11 -9 -11 -21 0 -11 -4 -18 -8 -15 -5 3 -8 -8 -7 -23 1 -21
-2 -28 -12 -24 -10 4 -13 -1 -9 -21 3 -18 1 -24 -6 -20 -7 5 -9 1 -5 -9 3 -10
2 -17 -3 -17 -5 0 -7 -7 -4 -15 4 -9 0 -15 -7 -15 -12 0 -12 -2 -1 -9 11 -6
10 -10 -3 -15 -13 -5 -15 -9 -6 -20 6 -7 7 -16 3 -20 -7 -8 -8 -10 -12 -43 -1
-12 -3 -14 -7 -5 -4 9 -8 10 -18 2 -10 -8 -15 -8 -20 0 -5 8 -11 8 -21 -1 -8
-6 -17 -9 -21 -6 -3 4 -12 -1 -20 -11 -14 -16 -14 -16 -8 2 6 19 5 19 -13 3
-10 -9 -22 -14 -25 -10 -4 3 -7 1 -7 -5 0 -7 -6 -11 -12 -10 -7 2 -12 -3 -10
-10 1 -8 -2 -11 -8 -7 -6 4 -20 -5 -31 -19 -11 -14 -27 -26 -35 -26 -13 0 -15
-5 -18 -42 -1 -7 -8 -19 -16 -26 -13 -12 -13 -13 0 -6 13 7 13 6 1 -10 -13
-15 -13 -19 0 -27 11 -7 11 -9 0 -9 -7 0 -11 -6 -7 -15 3 -8 0 -15 -7 -15 -8
0 -8 -3 2 -9 7 -5 9 -10 3 -12 -6 -3 -6 -13 1 -29 9 -23 17 -59 19 -87 1 -7 5
-13 9 -13 5 0 5 -7 2 -17 -4 -10 -2 -14 4 -10 6 4 19 -3 29 -16 16 -18 16 -19
2 -8 -10 7 -18 11 -18 8 0 -3 20 -20 45 -37 25 -17 43 -36 40 -41 -4 -5 -9 -8
-13 -6 -4 2 -15 -4 -24 -15 -10 -10 -15 -18 -11 -18 4 0 -2 -7 -13 -16 -18
-15 -18 -15 0 -10 16 6 17 4 5 -10 -15 -19 -20 -54 -6 -54 5 0 7 -12 4 -26 -4
-20 0 -28 15 -32 11 -3 17 -10 14 -19 -3 -8 -2 -12 3 -9 5 3 12 -1 15 -10 3
-8 10 -12 16 -9 5 3 10 1 10 -5 0 -7 7 -9 16 -6 14 6 15 4 4 -9 -11 -13 -11
-16 1 -13 9 2 13 -4 11 -14 -2 -10 2 -18 8 -18 6 0 8 -5 5 -10 -4 -6 -1 -18 7
-27 11 -14 11 -16 -2 -8 -12 7 -13 6 -3 -7 7 -8 10 -18 6 -21 -3 -4 -1 -7 5
-7 7 0 12 -9 12 -20 0 -11 5 -20 11 -20 8 0 8 -4 0 -14 -9 -11 -8 -15 4 -20 9
-3 13 -10 10 -16 -3 -5 2 -10 12 -10 11 0 14 -3 7 -8 -7 -5 -7 -14 1 -29 7
-13 15 -20 18 -16 4 3 7 1 7 -4 0 -6 -6 -14 -12 -16 -8 -3 -6 -6 5 -6 9 -1 17
-8 17 -16 0 -8 5 -15 11 -15 5 0 7 -4 4 -10 -3 -5 1 -10 9 -10 9 0 16 -9 16
-20 0 -11 6 -20 14 -20 8 0 17 -9 21 -19 3 -11 15 -23 27 -27 16 -5 18 -8 7
-15 -11 -7 -10 -9 4 -9 9 0 17 -4 17 -10 0 -5 7 -6 17 -3 11 4 14 3 9 -5 -4
-7 -2 -12 5 -12 6 0 18 -8 26 -17 10 -12 12 -13 8 -3 -4 8 1 6 9 -4 12 -15 16
-16 16 -5 1 10 4 10 14 -4 11 -14 15 -15 19 -5 3 8 6 6 6 -6 1 -15 4 -16 16
-6 11 9 15 9 15 1 0 -7 4 -10 9 -6 5 3 12 1 16 -5 4 -7 12 -7 26 0 14 8 19 7
19 -2 0 -9 3 -9 10 2 8 12 10 12 10 1 0 -11 3 -11 16 0 9 7 18 9 22 3 10 -13
42 -14 42 -2 0 6 6 5 15 -2 12 -10 15 -10 15 1 0 9 3 10 8 4 9 -13 62 -14 62
0 0 5 5 3 10 -5 6 -10 10 -11 10 -3 0 9 7 10 27 2 19 -7 28 -6 33 2 6 8 9 7
13 -2 4 -11 6 -11 6 -1 1 7 6 10 12 7 14 -10 103 -10 117 -1 7 4 12 1 12 -6 0
-9 3 -9 10 2 5 8 10 10 10 5 0 -6 9 -11 20 -11 11 0 20 3 20 6 0 3 14 5 30 5
17 0 30 -4 30 -10 0 -5 5 -3 10 5 5 8 10 11 10 5 0 -5 14 -10 30 -10 17 0 30
4 30 8 0 4 9 3 20 -3 15 -8 20 -8 20 2 0 9 3 9 10 -2 6 -10 10 -11 10 -3 0 9
7 10 27 2 19 -7 28 -6 33 2 6 8 9 7 13 -2 4 -10 6 -10 6 -2 1 9 8 10 26 3 18
-7 25 -6 25 3 0 8 4 7 10 -3 9 -13 10 -13 10 0 0 9 3 11 8 5 10 -14 42 -15 42
-1 0 6 5 4 10 -4 5 -8 10 -10 10 -4 0 8 11 9 35 4 24 -5 35 -4 35 4 0 6 5 4
10 -4 9 -13 10 -13 10 0 0 9 3 11 8 5 9 -13 42 -15 42 -3 0 6 6 5 15 -2 12
-10 15 -10 15 1 0 9 3 10 8 4 9 -13 62 -14 62 0 0 5 5 3 10 -5 6 -10 10 -11
10 -3 0 9 7 10 27 2 19 -7 28 -6 33 2 6 8 9 7 13 -2 4 -11 6 -11 6 -1 1 7 6
10 12 7 14 -10 103 -10 117 -1 7 4 12 1 12 -6 0 -9 3 -9 10 2 5 8 10 10 10 5
0 -6 9 -11 20 -11 11 0 20 3 20 6 0 3 14 5 30 5 17 0 30 -4 30 -10 0 -5 5 -3
10 5 5 8 10 11 10 5 0 -5 14 -10 30 -10 17 0 30 4 30 8 0 4 9 3 20 -3 15 -8
20 -8 20 2 0 9 3 9 10 -2 6 -10 10 -11 10 -3 0 9 7 10 27 2 19 -7 28 -6 33 2
6 8 9 7 13 -2 4 -10 6 -10 6 -2 1 9 8 10 28 2 19 -7 28 -6 33 2 6 8 9 7 13 -2
4 -10 6 -10 6 -2 1 9 8 10 28 2 19 -7 28 -6 33 2 6 8 9 7 13 -2 4 -11 6 -11 6
-1 1 7 6 10 12 7 14 -10 103 -10 117 -1 7 4 12 1 12 -6 0 -9 3 -9 10 2 5 8 10
10 10 5 0 -6 9 -11 20 -11 11 0 20 3 20 6 0 3 14 5 30 5 17 0 30 -4 30 -10 0
-5 5 -3 10 5 5 8 10 11 10 5 0 -5 14 -10 30 -10 17 0 30 4 30 8 0 4 9 3 20 -3
15 -8 20 -8 20 2 0 9 3 9 10 -2 6 -10 10 -11 10 -3 0 9 7 10 27 2 20 -7 28 -6
35 3 6 10 8 10 8 -2 0 -12 2 -13 9 -1 7 11 9 11 14 0 4 -9 6 -10 6 -2 1 7 8
10 16 7 8 -4 21 -2 28 3 6 5 22 8 35 7 12 0 22 4 22 10 0 6 4 5 9 -2 7 -11 9
-11 14 2 4 9 17 16 31 16 14 0 28 5 31 10 4 6 11 7 17 4 7 -4 8 -2 4 4 -6 11
-1 14 20 11 3 0 15 10 26 23 11 13 24 22 29 20 5 -1 9 4 9 11 0 19 45 59 55
50 4 -5 5 -3 2 4 -4 6 -1 18 8 26 8 8 16 21 17 28 2 7 11 22 21 33 9 11 17 25
17 30 0 6 -5 4 -10 -4 -6 -9 -10 -10 -10 -3 0 7 7 16 15 20 8 5 15 23 17 41 1
17 7 32 12 32 5 0 6 3 3 7 -4 3 -1 13 6 21 10 13 9 14 -3 7 -13 -7 -13 -6 -2
7 7 9 11 27 8 41 -3 18 0 27 12 30 15 4 15 5 -1 6 -14 1 -16 5 -9 19 5 9 8 25
7 35 -2 9 1 17 6 17 6 0 7 5 3 12 -5 8 -2 9 9 5 10 -3 17 -2 17 3 0 6 6 9 13
8 6 -2 11 2 10 9 -2 8 4 10 14 6 11 -4 14 -3 9 5 -4 7 -1 12 8 12 9 0 15 3 15
8 -1 4 -1 16 0 27 1 17 3 18 11 5 6 -9 10 -10 10 -3 0 6 -5 15 -10 18 -6 4 -7
12 -3 18 10 17 11 47 1 47 -4 0 -8 9 -8 21 0 11 -4 18 -9 15 -8 -5 -8 15 -1
34 1 3 2 8 1 12 0 4 8 5 19 3 12 -2 21 3 25 16 4 11 9 18 13 16 10 -5 42 30
34 37 -3 3 0 6 7 6 7 0 10 4 6 9 -3 5 1 16 9 24 8 8 17 27 20 43 2 16 5 31 6
34 1 3 1 13 0 24 -1 13 2 16 12 10 11 -6 11 -5 0 8 -10 13 -10 17 0 21 10 4
10 8 -2 16 -13 10 -13 11 0 11 12 1 11 3 -3 11 -14 8 -16 14 -6 25 6 8 7 14 3
14 -5 0 -15 9 -22 21 -11 17 -11 20 0 14 7 -4 -7 11 -31 34 -24 22 -47 38 -52
36 -4 -3 -11 4 -14 16 -6 17 -9 19 -16 8 -6 -10 -9 -11 -9 -1 0 6 -11 12 -25
12 -14 0 -25 4 -25 8 0 4 -10 8 -22 9 -34 1 -67 8 -74 16 -4 4 -3 7 3 7 6 0 9
9 6 20 -3 11 -10 17 -17 13 -6 -3 -3 3 8 15 17 20 18 22 2 28 -14 5 -15 9 -4
15 10 7 11 9 0 9 -7 0 -10 5 -7 10 4 6 1 18 -7 27 -7 9 -8 14 -2 10 6 -3 11 0
11 8 0 8 -4 12 -9 9 -4 -3 -8 4 -8 15 0 11 -4 22 -9 25 -4 3 -7 17 -6 31 2 14
-2 25 -8 25 -5 0 -8 3 -4 6 3 4 -1 13 -9 21 -8 9 -13 22 -10 30 3 8 1 11 -4 8
-6 -3 -10 0 -10 8 0 7 -9 23 -20 35 -11 12 -20 25 -20 31 0 5 -7 12 -16 15 -8
3 -12 10 -9 16 3 5 -1 10 -10 10 -9 0 -13 5 -10 10 3 6 -1 10 -9 10 -14 0 -20
11 -17 32 0 4 -6 5 -14 2 -8 -4 -15 -1 -15 6 0 6 -4 8 -10 5 -5 -3 -10 1 -10
10 0 9 -4 13 -10 10 -5 -3 -10 -1 -10 4 0 6 -5 11 -11 11 -6 0 -17 7 -26 15
-8 8 -19 13 -24 10 -5 -4 -9 -2 -9 3 0 5 -18 15 -40 22 -24 8 -37 17 -33 24 4
7 2 7 -8 -1 -11 -9 -18 -8 -33 2 -10 8 -25 11 -34 8 -10 -4 -13 -2 -8 5 4 7 2
12 -4 12 -6 0 -8 5 -5 10 3 6 -1 10 -10 10 -9 0 -13 5 -10 10 4 6 3 10 -2 9
-16 -4 -63 13 -63 23 0 5 -4 6 -10 3 -5 -3 -10 -1 -10 4 0 6 -7 11 -16 11 -8
0 -12 5 -9 10 3 6 -3 10 -14 10 -11 0 -25 9 -31 20 -6 11 -18 20 -26 20 -11 0
-14 6 -10 16 4 12 2 15 -9 10 -9 -3 -19 3 -25 14 -6 11 -19 20 -30 20 -10 0
-22 5 -25 10 -5 8 -11 8 -20 0 -9 -8 -14 -8 -17 0 -2 6 -18 12 -36 12 -17 1
-32 5 -32 11 0 5 -12 7 -26 4 -16 -3 -28 0 -31 10 -3 7 -13 13 -23 11 -9 -2
-25 4 -35 12 -11 8 -16 10 -12 3 5 -8 1 -8 -17 0 -13 7 -22 15 -20 19 3 5 1 8
-3 8 -14 0 -13 40 0 40 7 0 4 5 -7 11 -15 9 -16 13 -5 20 8 5 9 9 3 9 -6 0
-10 10 -9 23 1 12 -3 28 -9 36 -7 10 -8 13 0 8 7 -4 11 6 11 28 0 19 -5 35
-11 35 -8 0 -8 2 0 8 18 12 23 39 11 52 -9 9 -9 11 -1 7 7 -4 15 0 18 9 5 12
2 15 -11 10 -16 -6 -16 -6 0 12 20 22 22 36 5 27 -7 -4 -5 0 4 8 10 8 15 17
11 21 -4 4 -1 11 7 16 11 7 11 10 2 10 -10 0 -10 5 -2 20 6 11 8 25 5 30 -3 6
-2 10 3 10 5 0 8 16 6 35 -1 19 1 33 4 31 4 -2 7 11 7 30 0 19 -3 34 -7 34 -5
0 -8 5 -8 11 0 5 5 7 10 4 6 -3 10 -1 10 5 0 7 7 10 15 6 8 -3 15 -1 15 5 0 6
5 7 11 4 6 -4 13 2 16 14 3 12 10 18 17 14 7 -4 7 -1 -1 8 -10 12 -10 18 0 28
9 10 9 12 -3 9 -10 -2 -14 3 -12 15 2 9 -2 17 -8 17 -6 0 -9 4 -5 9 3 5 0 15
-7 23 -7 7 -14 20 -16 28 -2 8 -11 24 -20 34 -13 15 -14 18 -2 12 9 -5 8 -2
-2 7 -10 8 -15 17 -11 20 3 4 -1 7 -11 7 -9 0 -14 5 -11 10 3 6 2 10 -4 10 -5
0 -13 9 -16 20 -3 11 -13 20 -22 20 -8 0 -17 9 -20 20 -3 11 -9 18 -13 15 -4
-3 -13 2 -20 10 -7 8 -19 15 -26 15 -8 0 -14 5 -14 11 0 8 -6 7 -17 -2 -11 -9
-14 -10 -9 -2 5 9 2 11 -8 7 -8 -3 -17 -12 -20 -20 -3 -9 -9 -13 -13 -11 -5 3
-8 -5 -8 -18 0 -13 3 -21 6 -19 4 2 10 -3 13 -12 4 -10 2 -13 -7 -8 -8 5 -8 2
2 -9 7 -9 18 -14 24 -10 5 3 7 1 4 -5 -10 -15 3 -43 17 -35 6 4 5 -1 -3 -10
-9 -12 -10 -17 -2 -17 7 0 9 -4 6 -10 -3 -5 -2 -10 3 -10 6 0 8 -9 5 -20 -3
-11 -1 -20 4 -20 5 0 9 -27 9 -61 -1 -33 3 -63 8 -66 4 -3 2 -9 -5 -14 -12 -8
-11 -11 1 -19 12 -7 12 -10 1 -10 -9 0 -11 -8 -7 -26 4 -14 3 -23 -2 -20 -5 3
-9 -1 -9 -9 0 -8 5 -15 11 -15 7 0 7 -3 1 -8 -12 -8 -18 -29 -17 -54 0 -10 -3
-18 -8 -18 -4 0 -6 -10 -2 -22 4 -15 2 -19 -7 -13 -10 6 -11 3 -2 -14 9 -16 9
-21 0 -21 -6 0 -9 -9 -6 -20 3 -11 2 -18 -3 -15 -4 3 -11 -2 -14 -11 -3 -8 -2
-12 3 -9 5 3 12 1 16 -5 3 -5 0 -10 -7 -10 -9 0 -13 -10 -12 -27 1 -16 -3 -36
-7 -45 -6 -10 -5 -19 1 -23 7 -4 7 -13 0 -26 -8 -14 -7 -19 2 -19 8 0 9 -3 3
-8 -14 -10 -17 -74 -3 -66 7 5 8 2 2 -7 -13 -21 -14 -39 -1 -39 8 0 8 -3 2 -8
-12 -9 -16 -44 -4 -36 13 8 11 -10 -3 -25 -11 -11 -10 -12 1 -6 11 6 13 3 9
-13 -4 -12 -1 -25 4 -29 7 -4 8 -1 3 7 -6 9 -4 11 4 5 9 -5 10 -10 2 -18 -7
-7 -6 -18 4 -37 8 -15 11 -30 8 -34 -4 -3 -1 -6 5 -6 7 0 12 -7 12 -15 0 -8 5
-15 11 -15 5 0 7 -5 3 -11 -3 -6 1 -10 12 -9 28 3 64 -11 64 -24 0 -6 5 -4 10
4 7 11 10 11 10 2 0 -7 4 -11 9 -7 5 3 12 2 15 -3 2 -4 -5 -8 -17 -9 -12 0
-30 -4 -39 -8 -11 -4 -18 -3 -18 5 0 6 5 8 12 4 7 -4 8 -3 4 5 -6 8 -12 9 -20
2 -9 -7 -17 -7 -26 2 -8 8 -11 8 -6 0 8 -14 -76 -5 -85 10 -4 5 -9 3 -12 -4
-3 -8 -6 -5 -6 8 -1 12 -7 24 -13 26 -8 3 -5 6 5 6 17 1 17 2 2 17 -13 14 -14
19 -3 25 7 5 8 9 2 9 -11 0 -12 6 -15 55 -1 14 -7 25 -13 25 -7 0 -7 3 -1 8
13 9 17 32 6 32 -5 0 -9 12 -9 28 1 44 -1 54 -11 47 -6 -3 -8 6 -5 21 3 14 1
23 -4 20 -4 -2 -8 7 -7 22 0 15 -5 36 -12 48 -7 11 -10 24 -6 27 3 4 2 7 -4 7
-9 0 -11 6 -15 49 -1 11 -5 18 -8 16 -3 -2 -10 8 -17 21 -8 18 -8 23 0 18 7
-3 5 0 -4 8 -9 7 -17 18 -18 23 -2 6 -7 9 -11 8 -5 -2 -7 6 -5 17 2 12 0 18
-6 15 -5 -4 -9 -1 -9 5 0 7 -8 19 -18 28 -11 11 -12 14 -2 8 8 -5 0 5 -17 21
-18 17 -30 33 -26 37 3 3 0 6 -7 6 -7 0 -23 11 -35 24 -13 14 -27 22 -31 18
-5 -4 -2 2 6 12 8 11 10 17 5 14 -16 -10 -36 6 -38 30 0 11 -4 19 -8 16 -4 -2
-12 3 -19 11 -17 20 -70 17 -62 -4 3 -9 1 -12 -5 -8 -6 4 -14 1 -17 -5 -3 -7
-5 1 -3 19 2 18 -1 29 -6 26 -5 -3 -6 4 -1 18 4 13 8 32 8 41 0 9 5 16 11 15
5 -1 9 4 8 11 -2 6 2 12 9 12 6 0 8 3 5 7 -4 3 2 13 13 20 11 8 18 19 15 24
-4 5 0 9 7 9 9 0 9 3 -2 10 -12 8 -12 10 -1 10 8 0 11 3 8 7 -4 3 1 12 11 20
9 8 11 11 3 7 -11 -5 -13 -3 -8 10 4 10 7 22 7 27 0 6 6 7 13 3 7 -5 6 0 -3
11 -8 10 -10 16 -5 13 6 -3 16 0 23 8 10 11 10 14 0 14 -6 0 -3 7 8 15 14 10
15 14 5 15 -12 0 -12 3 -3 12 9 9 7 15 -6 25 -9 8 -11 11 -3 7 9 -5 12 -3 7 4
-9 15 -55 15 -79 1z m-22 -477 c-3 -3 -11 0 -18 7 -9 10 -8 11 6 5 10 -3 15
-9 12 -12z m8 -19 c-10 -3 -10 -7 0 -18 7 -7 15 -11 18 -9 4 2 10 -3 13 -12 4
-10 2 -13 -7 -8 -8 5 -8 2 2 -9 7 -9 18 -14 25 -10 6 3 8 3 4 -1 -8 -10 14
-36 25 -29 4 2 7 -3 7 -11 0 -8 9 -17 20 -21 11 -3 19 -9 19 -13 -3 -20 2 -32
11 -27 6 3 10 1 10 -6 0 -7 8 -21 18 -32 12 -15 13 -19 2 -13 -9 4 -8 2 3 -7
9 -8 17 -22 17 -31 0 -9 5 -16 10 -16 6 0 10 -10 10 -23 0 -13 4 -27 9 -32 5
-6 11 -21 13 -35 1 -14 7 -28 12 -32 6 -4 4 -14 -5 -24 -9 -11 -9 -15 -1 -10
6 4 12 2 12 -3 0 -21 2 -26 13 -40 10 -12 9 -13 -3 -6 -13 8 -13 7 -1 -8 7 -9
10 -17 6 -17 -4 0 -2 -7 5 -15 10 -12 10 -15 -1 -15 -10 0 -10 -3 -2 -11 19
-19 4 -40 -18 -28 -14 7 -19 6 -19 -2 0 -7 -8 -5 -20 6 -12 11 -20 13 -20 6 0
-7 -8 -6 -25 5 -14 9 -25 13 -25 9 0 -4 -8 -1 -17 6 -12 10 -15 10 -9 1 4 -7
-9 -3 -28 8 -20 11 -36 15 -36 9 0 -17 -17 -1 -23 21 -3 11 -1 18 4 14 5 -3
10 -2 10 3 1 4 3 17 4 28 5 35 10 50 20 57 6 5 5 8 -4 8 -11 0 -11 3 -1 15 10
12 10 15 -1 15 -11 0 -11 2 1 10 8 5 11 12 8 16 -4 4 -3 15 3 25 7 15 6 21 -6
25 -14 6 -14 8 2 21 10 8 13 12 7 9 -7 -3 -14 3 -17 14 -3 11 -2 18 2 15 4 -2
8 2 8 10 0 8 -4 12 -9 9 -5 -4 -9 0 -7 7 4 32 -2 60 -11 54 -14 -9 -13 8 2 23
9 9 9 12 -1 12 -7 0 -9 5 -6 10 3 6 1 10 -5 10 -6 0 -8 5 -5 10 3 6 1 10 -4
10 -6 0 -11 7 -11 16 0 8 -7 22 -15 31 -16 16 -12 34 8 32 9 0 9 -2 0 -6z
m-170 -886 c12 -4 16 -3 11 4 -5 8 6 10 35 7 24 -2 41 1 42 7 0 5 3 5 5 -2 4
-8 15 -9 37 -2 39 11 39 11 32 0 -3 -6 6 -6 25 -1 21 6 30 5 30 -3 0 -8 3 -8
8 -2 8 12 42 13 60 2 7 -5 12 -3 12 4 0 8 4 8 13 1 8 -7 18 -7 27 -2 9 6 17 5
22 -3 6 -9 8 -8 8 3 0 13 1 13 10 0 6 -9 10 -11 10 -3 0 7 7 10 16 6 8 -3 60
-6 115 -7 59 0 99 -5 99 -11 0 -5 5 -3 10 5 7 11 10 11 10 2 0 -10 5 -10 20
-2 11 6 20 7 20 2 0 -4 14 -9 31 -10 22 -2 28 1 23 10 -6 9 -3 9 9 -1 9 -7 17
-10 17 -7 0 4 9 2 20 -4 15 -8 20 -8 21 2 0 10 2 10 6 -1 4 -10 7 -10 13 -1 5
8 11 7 23 -4 11 -12 16 -13 20 -3 3 9 7 9 19 -1 12 -10 18 -10 23 -1 6 8 10 8
15 -2 7 -10 11 -10 24 0 15 13 21 8 16 -14 -1 -5 4 -4 11 3 15 14 33 16 24 2
-4 -7 3 -7 19 0 14 5 26 6 26 1 0 -5 14 -8 30 -7 17 1 30 -2 30 -6 0 -5 10 -4
21 3 17 9 20 8 14 -2 -6 -8 -4 -11 7 -6 9 3 21 0 27 -6 8 -8 11 -8 11 2 0 7 5
9 13 4 6 -4 20 -6 30 -5 9 2 17 -3 17 -10 0 -9 3 -9 10 2 5 8 10 10 10 4 0
-10 31 -15 83 -15 9 0 17 -4 17 -10 0 -5 7 -9 16 -9 9 0 23 -8 31 -17 8 -11
11 -12 7 -3 -7 13 -5 13 9 1 9 -7 17 -10 17 -6 0 4 11 -4 25 -19 14 -15 25
-24 25 -20 0 4 9 -3 20 -16 11 -13 20 -19 21 -14 0 5 4 -1 10 -14 5 -13 13
-21 18 -17 6 3 8 -4 6 -15 -2 -11 0 -18 5 -15 6 4 15 -5 21 -19 7 -14 17 -22
23 -19 6 4 5 0 -2 -9 -9 -11 -9 -17 -2 -20 6 -2 20 -23 30 -46 11 -24 14 -40
8 -36 -7 5 -8 3 -2 -7 17 -26 32 -79 24 -84 -5 -3 -6 -15 -3 -28 4 -18 3 -19
-6 -7 -6 8 -11 10 -11 4 0 -14 -30 -14 -30 0 0 6 -5 4 -10 -4 -9 -13 -11 -13
-20 0 -5 8 -10 10 -10 4 0 -7 -13 -14 -29 -16 -18 -3 -28 0 -24 6 4 5 -1 7
-12 3 -9 -4 -24 -2 -31 4 -12 10 -13 9 -8 -5 5 -14 3 -15 -22 -6 -21 8 -29 8
-36 -2 -6 -10 -8 -10 -8 2 0 13 -1 13 -10 0 -9 -13 -10 -13 -10 0 0 9 -3 11
-8 5 -8 -11 -37 -13 -48 -3 -3 4 -15 3 -25 -2 -12 -7 -20 -7 -24 0 -3 5 -12
10 -18 10 -7 0 -6 -4 3 -11 12 -8 10 -9 -10 -7 -14 2 -28 8 -32 13 -5 6 -8 6
-8 -1 0 -6 -10 -10 -22 -10 -13 1 -29 -2 -36 -8 -8 -6 -16 -6 -20 0 -10 14
-42 16 -42 3 0 -8 -4 -8 -15 1 -12 10 -19 10 -27 2 -6 -6 -19 -7 -33 -2 -15 6
-27 4 -35 -3 -10 -9 -11 -9 -5 3 8 13 7 13 -8 1 -13 -10 -17 -10 -17 -1 0 10
-3 10 -15 0 -12 -10 -15 -10 -15 1 0 11 -2 11 -9 0 -8 -12 -12 -12 -24 -2 -11
8 -17 9 -22 1 -3 -6 -12 -7 -18 -3 -18 11 -47 11 -40 0 4 -6 0 -8 -9 -4 -9 3
-21 0 -27 -6 -9 -9 -10 -7 -5 8 6 17 5 18 -7 8 -17 -14 -30 -14 -46 -2 -7 7
-18 6 -31 -2 -12 -7 -27 -9 -38 -4 -28 12 -45 14 -39 5 6 -10 -96 -7 -112 3
-9 6 -11 3 -6 -10 5 -14 4 -16 -8 -8 -11 9 -83 10 -204 5 -5 -1 -25 1 -42 3
-19 2 -33 -2 -34 -7 0 -6 -3 -5 -6 3 -5 11 -7 11 -14 0 -7 -11 -9 -9 -9 6 0
17 -2 17 -10 5 -8 -13 -13 -13 -31 -2 -15 10 -19 10 -13 1 5 -9 1 -11 -14 -7
-13 4 -22 1 -23 -5 0 -9 -2 -9 -5 -1 -3 7 -14 9 -26 6 -16 -4 -19 -2 -13 9 7
12 6 12 -7 1 -8 -7 -24 -9 -33 -5 -14 5 -16 3 -10 -8 5 -8 -2 -5 -15 6 -13 11
-20 15 -17 9 5 -8 -11 -11 -49 -11 -35 0 -51 3 -43 8 10 6 10 9 2 9 -6 0 -14
-4 -17 -9 -3 -5 -15 -11 -26 -14 -11 -3 -18 -1 -15 3 3 5 1 11 -5 15 -5 3 -10
2 -10 -2 0 -5 -9 -9 -20 -10 -11 -1 -20 2 -20 6 0 4 -7 8 -15 8 -8 0 -12 -4
-9 -9 6 -10 6 -10 -34 1 -20 6 -30 6 -27 0 4 -5 1 -9 -4 -9 -6 0 -11 6 -11 13
0 9 -2 9 -8 0 -5 -8 -13 -9 -22 -3 -9 5 -20 5 -28 -2 -10 -9 -16 -8 -23 3 -7
12 -9 12 -9 -1 0 -13 -1 -13 -10 0 -8 12 -10 12 -10 1 0 -10 -3 -11 -13 -3 -8
7 -18 7 -27 2 -17 -10 -33 -3 -24 12 4 5 -6 2 -22 -8 -15 -11 -25 -13 -21 -6
5 6 4 12 -2 12 -6 0 -11 -6 -11 -12 0 -10 -2 -10 -8 -1 -8 13 -29 12 -51 -1
-10 -6 -12 -5 -7 3 6 9 0 10 -20 5 -21 -5 -25 -4 -20 7 4 8 1 6 -7 -4 -13 -16
-15 -16 -21 -2 -3 9 -11 13 -18 9 -18 -11 -118 -10 -118 1 0 6 -5 3 -10 -5 -5
-8 -10 -10 -10 -5 0 7 -15 9 -35 7 -21 -3 -42 1 -52 9 -12 10 -15 10 -9 2 5
-9 0 -13 -18 -13 -14 0 -28 5 -31 10 -5 8 -11 7 -20 0 -27 -23 -39 8 -21 52 4
9 9 25 11 35 2 10 4 20 5 23 1 3 2 8 1 13 0 4 4 7 10 7 6 0 9 7 5 15 -3 8 -1
15 4 15 6 0 10 7 10 15 0 8 5 15 11 15 5 0 8 4 5 9 -3 5 1 11 9 15 9 3 12 12
8 22 -4 12 -3 15 5 10 7 -4 12 -1 12 9 0 8 7 18 15 21 8 4 12 10 9 15 -3 5 0
9 5 9 6 0 11 7 11 15 0 8 4 15 9 15 5 0 25 15 44 33 40 35 144 97 132 77 -4
-7 3 -5 17 4 14 9 28 13 31 9 4 -3 7 -1 7 6 0 9 9 12 25 9 14 -3 25 -2 25 2 0
5 10 6 22 2 11 -3 19 -1 16 4 -4 5 16 9 43 9 27 0 49 5 49 10 0 6 5 3 10 -5 9
-13 10 -13 10 0 0 13 1 13 10 0 6 -9 10 -11 10 -3 0 7 7 10 15 7 8 -4 15 -1
15 6 0 6 5 8 11 5 5 -4 21 -8 35 -10 18 -2 24 2 20 12 -3 8 -1 11 4 8 18 -11
50 -14 50 -5 0 5 7 7 15 4 8 -4 12 -11 9 -18 -3 -6 2 -2 10 8 12 15 16 16 16
5 0 -10 2 -11 8 -2 8 12 36 12 48 0 4 -4 13 -2 21 4 7 6 13 8 13 4 0 -4 7 -2
15 5 12 10 15 10 15 0 0 -9 4 -9 13 -2 6 6 29 9 50 7 24 -3 37 0 37 8 0 8 3 9
8 1 4 -6 15 -13 25 -17z m-1206 -711 c18 -1 33 3 33 7 0 5 5 5 12 1 15 -10
153 -8 169 2 7 4 9 3 6 -3 -5 -7 8 -10 39 -7 25 3 43 1 40 -4 -3 -5 1 -9 9 -9
8 0 15 3 15 7 0 3 9 6 20 7 11 1 20 -4 20 -10 0 -7 4 -6 10 3 5 8 10 10 10 3
0 -12 17 -12 38 0 7 5 12 3 12 -4 0 -8 3 -9 13 0 8 6 16 8 19 5 3 -2 18 -7 33
-10 18 -3 24 -1 20 7 -4 6 5 3 21 -7 15 -11 25 -13 21 -6 -10 15 -6 15 28 2
17 -7 24 -7 20 0 -9 14 9 12 23 -2 9 -9 12 -9 12 0 0 6 6 9 13 7 32 -11 88
-14 82 -5 -3 6 1 7 9 4 9 -3 13 -11 9 -17 -4 -6 -1 -7 8 -1 19 12 69 13 69 0
0 -6 5 -5 12 2 14 14 32 16 23 3 -5 -9 2 -9 40 -1 6 1 12 1 15 0 19 -7 50 -5
50 4 0 6 4 5 9 -2 11 -19 15 -19 34 -4 10 9 17 10 22 2 3 -5 11 -10 16 -10 6
0 7 6 3 13 -6 9 -5 9 7 0 8 -7 31 -10 52 -8 20 1 35 0 33 -4 -3 -4 4 -7 15 -7
10 0 19 4 19 8 0 4 11 3 25 -2 18 -7 25 -6 26 3 0 6 2 8 5 2 2 -6 39 -9 86 -8
47 1 88 -3 95 -9 10 -8 12 -7 7 6 -5 14 -2 15 18 7 15 -6 31 -5 42 1 14 8 17
8 11 -2 -5 -9 -2 -10 14 -5 14 4 21 2 21 -7 0 -10 2 -10 9 1 10 15 49 23 56
11 3 -4 16 -5 30 -2 17 3 25 0 25 -9 0 -9 3 -10 8 -3 8 12 62 25 62 15 0 -3
16 -6 35 -6 19 0 35 5 35 10 0 6 5 3 10 -5 5 -8 10 -10 10 -4 0 7 11 9 26 6
16 -3 30 1 35 9 6 10 9 10 9 2 0 -15 82 -13 92 2 5 6 8 5 8 -3 0 -10 5 -10 22
-1 18 10 20 9 14 -7 -6 -16 -5 -17 11 -2 12 10 25 13 38 8 11 -4 26 -3 33 2 8
7 12 6 12 -3 0 -9 3 -10 8 -4 10 14 55 15 64 1 5 -7 8 -7 8 3 0 8 7 11 20 8
11 -3 20 0 21 6 0 7 4 3 9 -8 5 -11 9 -14 9 -8 1 9 14 12 40 10 22 -2 38 0 36
3 -2 3 32 5 75 4 57 -1 78 2 73 10 -5 8 -3 8 8 1 16 -12 39 -13 57 -2 6 5 12
4 12 0 0 -5 9 -9 19 -9 16 0 18 3 8 15 -10 12 -9 13 2 6 23 -14 103 -17 95 -3
-4 7 -3 8 5 4 22 -14 63 -17 55 -5 -5 8 -3 9 5 5 19 -12 111 -12 111 -1 0 7 3
7 8 0 10 -14 55 -15 64 -1 5 7 8 7 8 -3 0 -11 3 -11 15 -1 8 7 15 9 15 4 0 -5
20 -9 44 -9 28 0 42 3 38 10 -3 5 1 4 10 -2 8 -7 18 -10 21 -6 4 3 7 0 7 -8 0
-11 2 -11 10 1 5 8 10 10 10 5 0 -6 12 -12 27 -13 15 -1 30 -7 34 -13 3 -6 9
-10 13 -10 23 3 36 0 31 -9 -3 -5 1 -10 9 -10 22 0 28 -16 30 -70 1 -35 -2
-46 -10 -39 -8 6 -10 1 -6 -17 3 -17 1 -25 -6 -21 -5 4 -13 0 -16 -9 -4 -10
-2 -13 6 -8 7 4 8 3 4 -4 -4 -7 -14 -12 -22 -12 -9 0 -12 -5 -8 -12 4 -6 3 -8
-4 -4 -6 3 -14 1 -17 -5 -4 -5 -13 -8 -20 -5 -8 3 -16 0 -18 -7 -3 -9 -10 -9
-27 1 -16 10 -20 10 -15 1 6 -9 1 -10 -19 -5 -17 4 -25 3 -22 -3 8 -13 -37 0
-46 13 -5 7 -8 3 -8 -9 0 -11 -4 -15 -8 -10 -8 11 -122 14 -122 3 0 -5 -5 -8
-11 -8 -5 0 -7 4 -4 10 4 6 -2 7 -17 1 -15 -6 -31 -5 -42 1 -12 7 -17 7 -13 0
4 -6 -15 -9 -53 -7 -39 2 -57 -1 -53 -8 4 -6 1 -7 -8 -1 -19 12 -42 11 -51 -1
-5 -7 -8 -7 -8 0 0 12 -65 13 -76 2 -4 -4 -13 -2 -20 4 -9 7 -19 7 -33 0 -25
-14 -34 -14 -25 0 5 8 1 8 -14 0 -26 -14 -45 -14 -37 -1 3 6 1 10 -4 10 -6 0
-11 -5 -11 -11 0 -7 -10 -9 -25 -7 -14 3 -25 1 -25 -5 0 -6 -7 -2 -16 9 -8 10
-12 13 -9 6 5 -10 0 -13 -16 -12 -13 1 -26 1 -29 0 -15 -6 -68 -5 -64 2 3 4 0
8 -5 8 -6 0 -11 -8 -11 -17 0 -13 -2 -15 -8 -5 -5 7 -16 10 -24 7 -9 -4 -19
-1 -23 5 -5 8 -13 6 -28 -7 -11 -10 -17 -12 -13 -5 4 6 2 12 -3 12 -6 0 -11
-6 -11 -12 0 -10 -3 -9 -9 1 -7 10 -13 11 -31 1 -17 -9 -21 -9 -15 0 5 9 1 10
-15 5 -35 -11 -70 -13 -64 -4 3 5 -5 5 -18 1 -29 -10 -59 -9 -77 2 -10 6 -12
5 -7 -2 4 -7 2 -12 -3 -12 -6 0 -11 6 -11 13 0 9 -2 9 -8 -1 -5 -7 -22 -10
-40 -8 -18 2 -32 -1 -32 -6 0 -5 -6 -6 -12 -1 -17 10 -52 10 -59 0 -3 -5 -13
-1 -23 8 -15 15 -16 15 -16 -1 0 -13 -3 -14 -15 -4 -8 7 -15 9 -15 4 0 -5 -50
-9 -110 -9 -61 0 -110 4 -110 9 0 5 -6 3 -13 -3 -8 -6 -17 -8 -20 -5 -8 8
-132 8 -145 0 -6 -4 -13 -2 -17 4 -4 6 -10 8 -15 5 -5 -3 -11 -1 -15 5 -4 6
-16 3 -33 -8 -18 -12 -24 -13 -18 -3 7 11 4 13 -12 9 -13 -4 -22 -1 -22 5 0 7
-5 6 -11 -3 -8 -12 -12 -12 -16 -2 -4 9 -8 10 -18 2 -9 -8 -15 -8 -20 0 -4 7
-13 7 -27 -1 -18 -10 -20 -9 -15 5 6 15 4 15 -17 0 -14 -9 -27 -11 -30 -5 -3
5 -16 7 -28 3 -13 -3 -19 -1 -15 5 3 5 0 10 -8 10 -8 0 -12 -4 -10 -8 3 -4 -2
-9 -10 -13 -8 -3 -17 -1 -20 4 -3 5 -21 7 -40 5 -19 -2 -33 0 -31 3 2 4 -13 7
-35 7 -21 0 -39 -4 -39 -10 0 -5 -5 -4 -12 3 -14 14 -32 16 -23 2 7 -11 -23
-2 -43 13 -9 7 -11 6 -6 -6 4 -12 1 -14 -15 -10 -11 3 -18 10 -14 16 4 6 1 7
-7 2 -16 -10 -111 -15 -105 -5 6 9 -37 6 -52 -3 -8 -5 -13 -3 -13 4 0 8 -5 7
-17 -2 -18 -16 -23 -16 -33 1 -5 7 -14 8 -33 1 -18 -7 -27 -7 -29 1 -3 8 -11
7 -27 -2 -15 -7 -21 -8 -17 -1 10 15 -7 14 -23 -1 -11 -11 -12 -10 -6 2 8 13
7 13 -8 1 -9 -7 -17 -9 -17 -4 0 11 -65 11 -76 0 -4 -3 -12 -3 -18 0 -17 11
-56 11 -62 1 -3 -5 -12 -4 -20 3 -7 6 -21 8 -30 5 -9 -4 -24 -1 -32 6 -12 10
-14 10 -8 1 4 -7 3 -13 -1 -13 -5 0 -15 6 -22 13 -11 10 -12 9 -6 -2 6 -10 4
-12 -6 -5 -8 5 -18 9 -24 10 -21 2 -75 29 -75 37 0 4 -3 6 -7 4 -5 -3 -17 7
-28 22 -19 25 -19 26 0 11 19 -15 19 -15 1 14 -10 16 -12 25 -5 21 8 -6 10 -4
4 6 -12 18 -13 79 -2 79 5 0 7 7 3 15 -3 8 0 14 7 12 7 -1 11 4 9 11 -1 8 2
11 8 7 5 -3 10 -1 10 5 0 7 7 10 15 6 8 -3 15 -1 15 5 0 6 4 8 9 4 5 -3 12 -1
16 5 4 7 13 6 27 -1 16 -9 19 -8 13 1 -6 10 -1 11 19 6 16 -4 26 -2 26 4 0 6
5 8 12 4 6 -4 26 -7 45 -8z m-87 -485 c0 8 6 6 16 -7 8 -10 13 -14 10 -8 -7
15 36 27 45 13 4 -7 13 -7 28 3 18 11 23 11 31 -1 7 -12 11 -12 24 -2 10 9 16
10 16 2 0 -7 8 -8 27 0 19 7 29 7 31 0 2 -6 9 -8 15 -4 18 11 47 11 47 0 0 -5
6 -7 14 -4 7 3 19 0 26 -6 9 -9 11 -9 7 -1 -4 7 0 14 8 18 8 3 15 0 15 -6 0
-7 4 -7 13 0 8 7 18 7 27 2 9 -6 20 -4 29 3 12 10 13 9 7 -1 -10 -16 25 -13
36 3 5 6 8 5 8 -2 0 -7 7 -13 16 -13 9 0 12 5 8 13 -5 8 -2 8 9 -2 9 -7 17
-10 17 -6 0 4 6 2 14 -4 11 -10 17 -8 25 6 7 12 10 13 11 4 0 -9 8 -12 25 -9
14 3 28 1 31 -4 4 -6 10 -5 15 3 8 12 11 11 19 -1 7 -11 10 -11 10 -2 0 7 5
10 11 7 18 -12 69 -12 69 -1 0 7 3 8 8 1 4 -5 14 -10 22 -10 8 0 18 5 22 10 5
6 8 6 8 -2 0 -6 9 -9 22 -5 16 4 19 2 13 -9 -7 -11 -6 -12 6 -3 20 15 61 16
53 1 -5 -9 -3 -9 6 0 9 9 17 9 26 2 8 -7 14 -7 19 1 3 5 11 10 16 10 6 0 8 -4
5 -8 -6 -11 25 -9 43 2 8 5 17 3 22 -5 7 -12 9 -12 9 0 0 11 3 11 15 1 12 -10
15 -10 15 1 0 12 2 12 9 0 6 -9 10 -10 16 -2 5 9 10 9 21 0 11 -9 14 -8 14 2
0 9 3 10 8 4 4 -5 14 -10 22 -10 8 0 18 5 22 10 5 6 8 6 8 -2 0 -14 52 -13 62
2 5 6 8 6 8 -2 0 -6 9 -11 20 -10 11 1 20 6 20 11 0 5 6 2 13 -9 9 -11 16 -14
20 -7 4 5 16 8 27 5 12 -3 20 0 20 8 0 8 6 5 15 -7 8 -10 15 -14 15 -7 0 6 9
9 20 6 11 -3 28 1 37 8 12 10 14 10 9 2 -4 -8 -2 -13 6 -14 7 -1 22 -2 33 -3
11 0 23 4 27 9 5 7 8 7 8 0 0 -6 33 -9 82 -8 51 1 88 -3 97 -10 12 -9 13 -9 8
0 -6 9 5 12 40 11 27 -1 54 1 61 5 8 6 10 3 5 -10 -6 -15 -4 -16 8 -6 8 6 37
10 67 8 37 -2 50 0 45 9 -4 6 6 3 21 -8 16 -10 26 -13 22 -8 -8 13 53 11 73
-2 10 -6 12 -5 7 2 -8 14 65 14 102 1 15 -6 21 -5 17 1 -9 14 29 12 44 -3 10
-10 11 -8 5 8 -6 16 -5 18 7 8 16 -16 33 -17 23 -1 -5 7 -3 8 6 3 15 -9 156
-9 171 1 5 3 9 -1 10 -8 0 -7 3 -8 5 -3 2 6 25 10 49 9 25 -1 48 2 51 8 3 5
11 5 19 -2 10 -8 15 -8 20 0 5 8 11 8 21 -1 11 -9 14 -8 14 2 0 12 2 12 9 0 6
-9 10 -10 16 -2 5 9 10 9 21 0 11 -9 14 -9 14 1 0 10 3 10 14 1 10 -8 16 -9
21 -1 9 14 28 13 19 -2 -5 -10 -4 -10 6 -1 11 10 17 10 29 0 12 -10 13 -9 6 2
-6 11 -4 13 8 8 10 -3 17 -2 17 3 0 5 13 5 30 0 20 -6 30 -5 30 2 0 6 7 5 17
-3 11 -9 14 -10 9 -2 -5 10 1 11 25 6 24 -5 30 -3 24 6 -4 8 6 6 26 -5 33 -16
33 -16 19 1 -14 17 -13 17 6 7 16 -8 24 -8 32 0 9 9 12 9 12 -1 0 -11 3 -11
15 -1 12 10 15 10 15 -1 0 -9 3 -10 8 -4 8 12 22 13 39 2 6 -4 13 -2 15 5 3 8
6 6 10 -4 5 -11 2 -15 -10 -13 -9 1 -21 -3 -25 -9 -5 -6 -6 -3 -3 9 6 20 6 20
-9 0 -11 -13 -25 -19 -44 -17 -16 2 -32 -1 -36 -7 -3 -6 -11 -11 -16 -11 -6 0
-7 6 -3 13 6 9 4 9 -7 1 -8 -5 -30 -11 -49 -13 -19 -2 -39 -6 -45 -9 -15 -10
-39 -8 -47 3 -5 7 -11 6 -15 -1 -5 -6 -15 -11 -23 -12 -83 -3 -106 -7 -112
-16 -6 -8 -8 -8 -8 0 0 12 -41 11 -61 -2 -8 -5 -10 -3 -4 7 6 11 5 11 -5 2 -9
-9 -19 -9 -33 -2 -13 8 -17 8 -13 1 8 -14 -34 -12 -53 2 -11 8 -13 8 -7 -2 6
-9 -1 -12 -26 -11 -18 1 -42 -2 -52 -6 -13 -6 -17 -5 -12 3 4 7 -2 8 -23 2
-16 -4 -32 -6 -35 -3 -3 3 -12 0 -21 -7 -12 -10 -15 -9 -16 6 0 11 -3 14 -6 6
-2 -6 -9 -10 -14 -6 -5 3 -9 -1 -9 -8 0 -10 -3 -9 -9 1 -8 12 -12 12 -24 2
-11 -9 -17 -9 -22 0 -6 8 -10 7 -16 -2 -5 -8 -9 -9 -9 -4 0 6 -9 11 -20 11
-11 0 -20 -4 -20 -9 0 -4 -6 -5 -12 0 -17 10 -40 10 -55 -1 -9 -5 -13 -4 -13
5 0 11 -3 11 -11 -1 -8 -12 -12 -12 -16 -2 -4 10 -8 10 -21 0 -12 -11 -16 -11
-20 1 -4 11 -6 11 -13 0 -8 -12 -11 -11 -19 1 -6 10 -10 11 -10 2 0 -14 -21
-12 -32 3 -5 6 -8 6 -8 -1 0 -6 -11 -11 -25 -11 -16 0 -22 4 -18 11 4 7 1 6
-8 -1 -12 -10 -18 -10 -29 0 -7 6 -10 7 -7 1 4 -7 -5 -11 -24 -12 -20 0 -27 3
-22 11 4 7 -1 6 -11 -2 -13 -11 -20 -11 -28 -3 -7 7 -17 12 -22 12 -6 0 -5 -4
3 -9 9 -6 0 -9 -27 -8 -22 0 -38 5 -35 10 3 5 -5 3 -16 -5 -18 -11 -23 -11
-31 2 -6 9 -10 10 -10 3 0 -15 -60 -14 -60 1 0 6 -5 4 -10 -4 -5 -8 -10 -11
-10 -6 0 5 -7 3 -16 -4 -8 -8 -14 -9 -13 -4 4 23 -2 26 -17 8 -8 -10 -13 -14
-10 -8 3 7 -1 15 -10 18 -8 3 -12 2 -9 -4 9 -14 -19 -12 -34 3 -8 7 -11 7 -8
1 4 -7 -3 -12 -18 -11 -16 0 -22 4 -18 11 4 6 -1 5 -11 -3 -15 -13 -19 -13
-27 0 -5 8 -9 9 -9 3 0 -6 -11 -11 -25 -11 -16 0 -22 4 -18 11 4 6 -1 5 -10
-3 -14 -11 -20 -11 -34 0 -11 10 -14 10 -9 2 4 -7 3 -13 -1 -13 -5 0 -15 6
-22 13 -8 7 -11 7 -8 1 4 -7 -3 -11 -18 -11 -15 0 -22 4 -18 11 4 7 1 6 -7 -1
-9 -9 -19 -9 -33 -2 -14 8 -18 8 -12 -1 9 -14 -27 -10 -37 5 -5 6 -8 6 -8 -1
0 -6 -11 -11 -25 -11 -14 0 -25 5 -25 11 0 6 -4 6 -9 -2 -11 -17 -21 -17 -32
0 -7 10 -9 10 -9 0 0 -10 -5 -10 -21 -1 -15 8 -19 8 -15 0 4 -6 2 -11 -3 -11
-6 0 -11 6 -11 13 0 9 -3 8 -9 -2 -6 -9 -10 -10 -16 -2 -5 9 -10 9 -20 1 -10
-8 -15 -8 -20 0 -5 8 -11 8 -21 -1 -11 -9 -14 -9 -14 1 0 9 -4 9 -17 -1 -15
-12 -16 -12 -8 1 8 13 7 13 -8 1 -12 -9 -17 -10 -17 -2 0 7 -5 9 -12 4 -20
-12 -41 -10 -60 6 -15 12 -18 11 -24 -3 -5 -13 -9 -15 -15 -5 -6 10 -11 10
-25 -2 -11 -9 -15 -9 -10 -1 8 13 -19 13 -41 -1 -6 -4 -14 -3 -18 3 -3 5 -24
8 -46 7 -22 -2 -42 0 -45 4 -3 5 -15 4 -27 0 -14 -5 -30 -5 -40 0 -12 7 -17 6
-17 -3 0 -9 -3 -9 -10 2 -8 12 -11 13 -19 1 -6 -9 -11 -10 -15 -2 -4 6 -12 9
-17 5 -5 -3 -17 0 -26 8 -12 9 -15 9 -9 1 9 -16 -12 -17 -49 -3 -14 5 -24 6
-21 2 7 -12 -25 -8 -53 7 -13 7 -21 8 -17 3 4 -6 -10 -9 -34 -8 -22 0 -40 4
-40 7 0 3 -12 4 -26 1 -21 -4 -25 -2 -19 9 7 11 6 12 -6 2 -12 -10 -18 -10
-29 0 -10 10 -11 9 -5 -3 8 -13 6 -13 -8 -1 -9 7 -24 11 -32 7 -8 -3 -15 -1
-15 5 0 6 -7 9 -15 6 -8 -4 -17 -2 -21 4 -4 6 -12 5 -22 -3 -13 -11 -15 -10
-9 4 7 19 -8 35 -16 18 -3 -6 -4 -5 -3 2 2 7 10 12 19 10 8 -1 18 2 22 8 5 8
11 7 21 -1 11 -9 14 -8 14 2z m135 -222 c-3 -4 2 -10 11 -13 8 -3 12 -2 9 4
-3 6 1 7 9 4 9 -3 13 -10 10 -15 -3 -5 6 -5 20 1 16 6 27 6 31 0 4 -6 21 -10
39 -10 17 0 38 -6 45 -12 11 -11 12 -10 6 2 -6 12 -5 13 6 3 16 -15 33 -17 24
-3 -9 15 2 12 19 -6 9 -8 16 -10 16 -4 0 7 6 8 18 2 9 -5 29 -7 45 -6 15 2 27
-2 27 -8 0 -5 6 -8 13 -5 6 3 21 8 32 12 16 6 17 5 5 -4 -12 -8 -5 -11 28 -11
30 0 41 -4 36 -12 -5 -7 -3 -8 7 -2 22 13 43 14 51 1 6 -9 8 -9 8 1 0 8 5 10
13 5 19 -12 36 -12 43 -2 4 6 14 5 27 -3 13 -8 48 -13 84 -12 34 1 61 -2 58
-6 -5 -9 27 -6 43 4 6 4 12 3 12 -1 0 -8 79 -14 164 -13 15 0 35 -5 44 -12 10
-8 13 -9 9 -1 -11 18 16 22 35 6 10 -9 22 -12 30 -7 19 12 38 14 38 3 0 -6 5
-7 10 -4 6 4 7 12 4 18 -5 9 -4 9 6 0 7 -6 19 -9 26 -6 8 3 14 -1 14 -8 0 -12
2 -12 9 0 6 9 10 10 16 2 5 -9 10 -9 20 -1 9 8 15 8 20 0 4 -7 13 -7 27 1 15
8 19 8 14 0 -5 -8 0 -8 18 -1 17 6 26 6 26 0 0 -12 22 -9 32 5 5 6 8 5 8 -2 0
-9 7 -10 25 -3 18 7 25 6 25 -3 0 -8 3 -8 9 2 6 9 10 10 16 2 5 -9 10 -9 20
-1 8 6 16 7 19 2 6 -9 53 -8 63 2 3 3 15 1 26 -5 13 -8 17 -8 13 -1 -4 6 2 10
14 9 11 -1 20 -6 20 -12 0 -5 4 -4 9 4 8 13 12 13 27 0 10 -8 15 -9 11 -3 -5
8 8 11 43 10 28 -2 50 1 50 5 0 4 12 4 28 0 19 -5 31 -3 40 8 8 9 11 11 8 5
-4 -7 6 -13 24 -16 16 -2 27 -1 24 4 -3 4 4 8 15 8 12 0 21 -6 22 -12 0 -7 4
-4 9 7 5 11 9 15 9 8 1 -12 18 -12 39 0 6 5 12 4 12 -2 0 -6 7 -8 15 -5 8 4
12 10 9 15 -8 14 3 10 20 -7 9 -8 16 -11 16 -6 0 5 17 10 38 11 93 4 118 7
131 15 10 6 12 5 7 -2 -9 -16 7 -15 22 0 9 9 12 9 12 -1 0 -10 4 -10 13 -3 6
6 27 9 45 8 17 -1 32 2 32 7 0 5 6 4 14 -2 11 -10 17 -8 25 6 6 10 11 13 11 7
0 -15 48 -11 79 5 15 8 21 9 17 2 -4 -6 -2 -11 3 -11 6 0 11 6 12 13 0 8 2 9
5 0 3 -7 14 -9 32 -4 15 4 32 6 39 4 6 -2 14 1 18 7 5 8 11 8 21 -1 9 -7 14
-8 14 -1 0 6 22 10 54 9 37 -1 52 1 46 8 -6 7 -2 11 11 11 10 0 19 -4 19 -8 0
-5 8 -4 19 1 10 6 21 7 25 4 3 -3 6 -1 6 7 0 10 4 10 17 -1 15 -12 16 -12 10
6 -7 18 -6 19 6 3 8 -10 17 -14 21 -11 4 4 3 -5 -3 -19 -7 -18 -7 -29 0 -34 7
-4 7 -10 0 -18 -6 -7 -8 -16 -4 -19 3 -4 2 -7 -4 -7 -6 0 -14 -7 -17 -16 -3
-8 -2 -12 4 -9 6 3 10 1 10 -4 0 -6 -5 -11 -11 -11 -6 0 -9 -7 -5 -15 3 -8 2
-14 -2 -12 -4 1 -9 -2 -10 -8 -10 -28 -24 -45 -32 -40 -6 3 -7 -1 -4 -9 3 -9
1 -16 -4 -16 -6 0 -14 -9 -17 -20 -4 -11 -10 -18 -15 -15 -5 3 -13 -3 -19 -12
-6 -10 -11 -14 -11 -9 0 5 -9 -1 -20 -14 -13 -15 -20 -18 -20 -9 0 11 -2 11
-10 -1 -5 -8 -10 -11 -10 -6 0 4 -9 -2 -21 -15 -11 -13 -18 -18 -14 -11 8 15
0 15 -26 2 -14 -8 -19 -7 -19 2 0 10 -3 10 -9 -1 -5 -8 -16 -11 -25 -8 -9 4
-16 1 -16 -5 0 -6 -6 -5 -17 3 -11 10 -14 10 -9 2 4 -7 2 -13 -3 -13 -6 0 -11
5 -11 12 0 9 -3 9 -12 0 -9 -9 -15 -9 -27 1 -12 9 -13 9 -7 -1 9 -15 -6 -16
-22 0 -9 9 -12 9 -12 -1 0 -11 -3 -11 -17 0 -11 10 -14 10 -9 1 4 -6 2 -12 -3
-12 -6 0 -11 5 -11 12 0 9 -3 9 -12 0 -9 -9 -15 -9 -27 1 -12 9 -13 9 -7 -1 9
-15 -6 -16 -22 0 -9 9 -12 9 -12 -1 0 -11 -3 -11 -17 0 -11 10 -14 10 -9 2 4
-7 2 -13 -3 -13 -6 0 -11 5 -11 12 0 9 -3 9 -12 0 -9 -9 -15 -9 -27 1 -12 9
-13 9 -7 0 9 -16 -6 -17 -22 -1 -9 9 -12 9 -12 -1 0 -11 -3 -11 -17 0 -11 10
-14 10 -9 2 4 -7 2 -13 -3 -13 -6 0 -11 5 -11 12 0 9 -3 9 -12 0 -9 -9 -15 -9
-27 1 -12 9 -13 9 -7 0 4 -7 2 -13 -3 -13 -6 0 -11 5 -11 11 0 8 -5 8 -15 -1
-12 -10 -15 -10 -16 1 0 12 -1 12 -6 0 -5 -11 -7 -11 -14 0 -7 12 -9 12 -9 0
0 -11 -3 -11 -17 0 -11 10 -14 10 -9 2 4 -7 2 -13 -3 -13 -6 0 -11 5 -11 12 0
9 -3 9 -12 0 -9 -9 -15 -9 -27 1 -12 9 -13 9 -7 0 9 -16 -6 -17 -22 -1 -9 9
-12 9 -12 -1 0 -11 -3 -11 -17 0 -11 10 -14 10 -9 2 4 -7 2 -13 -3 -13 -6 0
-11 5 -11 12 0 9 -3 9 -12 0 -9 -9 -15 -9 -27 1 -12 9 -13 9 -7 0 9 -16 -6
-17 -22 -1 -9 9 -12 9 -12 -1 0 -11 -3 -11 -17 0 -11 10 -14 10 -9 2 4 -7 2
-13 -3 -13 -6 0 -11 5 -11 12 0 9 -3 9 -12 0 -9 -9 -15 -9 -27 1 -12 9 -13 9
-7 0 9 -16 -6 -17 -22 -1 -9 9 -12 9 -12 -1 0 -11 -3 -11 -17 0 -11 10 -14 10
-9 2 4 -7 2 -13 -3 -13 -6 0 -11 5 -11 12 0 9 -3 9 -12 0 -9 -9 -15 -9 -27 1
-12 9 -13 9 -7 0 9 -16 -6 -17 -22 -1 -9 9 -12 9 -12 -1 0 -11 -3 -11 -17 0
-11 10 -14 10 -9 1 4 -6 2 -12 -3 -12 -6 0 -11 5 -11 12 0 9 -3 9 -12 0 -9 -9
-15 -9 -27 1 -12 9 -13 9 -7 0 4 -7 2 -13 -3 -13 -6 0 -11 5 -11 11 0 8 -5 8
-15 -1 -12 -10 -15 -10 -15 1 0 9 -3 10 -8 4 -4 -5 -14 -10 -22 -10 -8 0 -18
5 -22 10 -5 7 -8 7 -8 0 0 -5 -16 -10 -35 -10 -19 0 -35 5 -35 10 0 7 -3 7 -8
0 -9 -13 -72 -13 -72 0 0 7 -3 7 -8 0 -4 -5 -20 -10 -37 -10 -16 0 -33 5 -37
10 -5 6 -8 5 -8 -2 0 -9 -7 -10 -25 -3 -17 7 -25 6 -25 -1 0 -7 -6 -6 -17 2
-11 10 -14 10 -9 2 4 -7 2 -13 -3 -13 -6 0 -11 5 -11 12 0 9 -3 9 -12 0 -9 -9
-15 -9 -27 1 -12 9 -13 9 -7 0 9 -16 -6 -17 -22 -1 -9 9 -12 9 -12 -1 0 -11
-3 -11 -17 0 -11 10 -14 10 -9 2 4 -7 2 -13 -3 -13 -6 0 -11 5 -11 12 0 9 -3
9 -12 0 -9 -9 -15 -9 -27 1 -12 9 -13 9 -7 0 9 -16 -6 -17 -22 -1 -9 9 -12 9
-12 -1 0 -11 -3 -11 -17 0 -11 10 -14 10 -9 2 4 -7 2 -13 -3 -13 -6 0 -11 5
-11 12 0 9 -3 9 -12 0 -9 -9 -15 -9 -27 1 -12 9 -13 9 -7 0 9 -16 -6 -17 -22
-1 -9 9 -12 9 -12 -1 0 -11 -3 -11 -17 0 -11 10 -14 10 -9 2 4 -7 2 -13 -3
-13 -6 0 -11 5 -11 11 0 8 -4 8 -13 0 -10 -8 -17 -7 -27 2 -10 9 -11 9 -6 0 9
-16 -6 -17 -22 -1 -9 9 -12 9 -12 -1 0 -11 -3 -11 -17 0 -11 10 -14 10 -9 2 4
-7 2 -13 -3 -13 -6 0 -11 5 -11 12 0 9 -3 9 -12 0 -9 -9 -15 -9 -27 1 -12 9
-13 9 -7 0 4 -7 2 -13 -3 -13 -6 0 -11 5 -11 11 0 8 -5 8 -15 -1 -12 -10 -15
-10 -15 1 0 9 -3 10 -8 4 -4 -5 -14 -10 -22 -10 -8 0 -18 5 -22 10 -5 7 -8 7
-8 0 0 -5 -20 -10 -45 -10 -25 0 -45 4 -45 8 0 5 -5 5 -10 2 -6 -4 -18 -1 -27
7 -14 11 -16 11 -8 -2 7 -12 6 -13 -7 -3 -8 7 -18 10 -21 6 -4 -3 -7 1 -7 10
0 15 -17 22 -42 18 -5 0 -8 6 -8 14 0 9 -6 12 -17 8 -10 -4 -14 -2 -10 4 4 6
0 13 -8 17 -8 3 -15 13 -15 21 0 9 -4 14 -8 11 -5 -3 -19 13 -31 34 -12 22
-27 40 -33 40 -6 0 -5 7 3 18 7 9 9 14 4 9 -5 -4 -14 5 -22 20 -7 16 -20 39
-29 53 -14 22 -14 23 0 6 20 -25 21 -8 1 20 -8 12 -11 24 -8 28 3 3 1 6 -5 6
-7 0 -12 6 -12 13 0 8 7 14 15 14 8 0 12 -4 10 -8z"/>
<path d="M171 1607 c-13 -21 -12 -21 5 -5 10 10 16 20 13 22 -3 3 -11 -5 -18
-17z"/>
<path d="M3479 493 c-13 -16 -12 -17 4 -4 16 13 21 21 13 21 -2 0 -10 -8 -17
-17z"/>
</g>
</svg>
